<svg xmlns="http://www.w3.org/2000/svg"  viewBox="0 0 32 32" width="32px" height="32px"><path fill="#ed0049" d="M13.149,22.065c-0.461-1.373-1.619-2.37-3.003-2.648c0.056-0.291,0.08-0.591,0.069-0.897 c-0.061-1.688-1.17-3.136-2.743-3.655c0.113-0.21,0.209-0.433,0.285-0.667c0.079-0.246,0.134-0.495,0.165-0.744 c2.225,0.9,4.599,1.437,7.032,1.583c-0.588-0.959-1.199-2.328-1.489-4.177c-4.63-0.718-8.696-3.161-11.526-6.663 c-0.564,0.97-0.881,2.106-0.881,3.305c0,2.278,1.146,4.284,2.894,5.465C2.883,12.935,1.879,12.633,1,12.148 c0,0.02,0,0.049,0,0.077c0,3.184,2.244,5.835,5.217,6.438c-0.543,0.152-1.118,0.236-1.709,0.236c-0.42,0-0.83-0.048-1.227-0.121 c0.828,2.602,3.23,4.503,6.076,4.56c-2.227,1.757-5.031,2.81-8.081,2.81C0.75,26.148,0.509,26.063,0,26c2.881,1.857,6.028,3,9.7,3 c0.344,0,0.682-0.01,1.016-0.027c1.053-1.138,1.916-3.025,2.517-4.697C13.406,23.56,13.395,22.796,13.149,22.065z"/><path fill="#0f518c" d="M31.439,6.074C30.274,6.6,29.021,6.95,27.698,7.116c1.344-0.812,2.378-2.108,2.864-3.638 c-1.258,0.75-2.651,1.302-4.134,1.592C25.244,3.792,23.556,3,21.685,3c-3.181,0-5.824,2.304-6.391,5.346 c-0.055,3.407,1.094,5.402,1.805,6.302c0.497-0.243,0.948-0.583,1.313-1.017c0.806-0.96,1.115-2.244,0.834-3.466 c-0.046-0.201-0.068-0.398-0.068-0.603C19.178,8.15,20.302,7,21.685,7c0.695,0,1.338,0.28,1.81,0.789 c0.858,0.858,0.719,2.311,0.719,2.532c0,4.76-2.755,11.028-8.727,13.55c-0.427,1.365-1.113,3.199-2.068,4.78 c9.596-1.824,14.795-10.6,14.795-18.33c0-0.284-0.009-0.568-0.022-0.847C29.469,8.556,30.57,7.397,31.439,6.074z"/></svg>